<?xml version="1.0" encoding="utf-8"?>
<!-- Generator: Adobe Illustrator 16.0.0, SVG Export Plug-In . SVG Version: 6.00 Build 0)  -->
<!DOCTYPE svg PUBLIC "-//W3C//DTD SVG 1.1//EN" "http://www.w3.org/Graphics/SVG/1.1/DTD/svg11.dtd">
<svg version="1.1" id="Layer_1" xmlns="http://www.w3.org/2000/svg" xmlns:xlink="http://www.w3.org/1999/xlink" x="0px" y="0px"
	 width="497.778px" height="497.777px" viewBox="390.4 71.111 497.778 497.777"
	 enable-background="new 390.4 71.111 497.778 497.777" xml:space="preserve">
<path fill="#EFF2F3" d="M639.289,71.111C501.333,71.111,390.4,182.044,390.4,320c0,137.955,110.933,248.889,248.889,248.889
	c137.955,0,248.889-110.934,248.889-248.889C888.178,182.044,777.244,71.111,639.289,71.111z M736,297.956l-98.133,115.2
	l-97.423-115.2c-5.688-6.4-4.978-16.355,1.423-22.044c6.399-5.689,16.355-4.978,22.044,1.422l73.955,87.466l73.956-87.466
	c5.688-6.4,15.645-7.111,22.044-1.422C740.978,281.6,741.688,292.267,736,297.956z"/>
</svg>
