<?xml version="1.0" encoding="utf-8"?>
<!-- Generator: Adobe Illustrator 16.0.0, SVG Export Plug-In . SVG Version: 6.00 Build 0)  -->
<!DOCTYPE svg PUBLIC "-//W3C//DTD SVG 1.1//EN" "http://www.w3.org/Graphics/SVG/1.1/DTD/svg11.dtd">
<svg version="1.1" id="Layer_1" xmlns="http://www.w3.org/2000/svg" xmlns:xlink="http://www.w3.org/1999/xlink" x="0px" y="0px"
	 width="497.778px" height="497.777px" viewBox="390.4 71.111 497.778 497.777"
	 enable-background="new 390.4 71.111 497.778 497.777" xml:space="preserve">
<g>
	<path fill="#EFF2F3" d="M637.867,413.155l-97.423-115.2c-5.688-6.4-4.978-16.355,1.423-22.044
		c6.399-5.689,16.355-4.978,22.044,1.422l73.955,87.466l73.956-87.466c5.688-6.4,15.645-7.111,22.044-1.422
		c6.4,5.689,7.111,15.645,1.423,22.044L637.867,413.155z"/>
	<path fill="#EFF2F3" d="M639.289,568.889C502.045,568.889,390.4,456.533,390.4,320S502.756,71.111,639.289,71.111
		S888.178,183.467,888.178,320S776.533,568.889,639.289,568.889z M639.289,102.4c-120.178,0-217.601,98.133-217.601,217.6
		s98.134,217.6,217.601,217.6S857.6,440.178,857.6,320S759.467,102.4,639.289,102.4z"/>
</g>
</svg>
