<?xml version="1.0" encoding="utf-8"?>
<!-- Generator: Adobe Illustrator 16.0.0, SVG Export Plug-In . SVG Version: 6.00 Build 0)  -->
<!DOCTYPE svg PUBLIC "-//W3C//DTD SVG 1.1//EN" "http://www.w3.org/Graphics/SVG/1.1/DTD/svg11.dtd">
<svg version="1.1" id="Layer_1" xmlns="http://www.w3.org/2000/svg" xmlns:xlink="http://www.w3.org/1999/xlink" x="0px" y="0px"
	 width="151px" height="151px" viewBox="0 0 151 151" enable-background="new 0 0 151 151" xml:space="preserve">
<g>
	<g>
		<path fill="#97A7AA" d="M75,148.937c-40.528,0-73.5-32.972-73.5-73.5C1.5,34.908,34.472,1.936,75,1.936
			c40.528,0,73.5,32.972,73.5,73.501C148.5,115.965,115.528,148.937,75,148.937z"/>
		<path fill="#FFFFFF" d="M75,3.436c39.701,0,72,32.299,72,72.001c0,39.701-32.299,72-72,72s-72-32.299-72-72
			C3,35.735,35.299,3.436,75,3.436 M75,0.436c-41.422,0-75,33.579-75,75.001c0,41.421,33.578,75,75,75c41.421,0,75-33.579,75-75
			C150,34.015,116.421,0.436,75,0.436L75,0.436z"/>
	</g>
	<g id="Your_Icon">
		<path fill="#FFFFFF" d="M82.857,84.255c0-12.009,9.771-21.779,21.78-21.779s21.778,9.771,21.778,21.779
			c0,12.01-9.77,21.78-21.778,21.78C92.63,106.037,82.857,96.265,82.857,84.255z M85.707,84.255c0,10.438,8.492,18.93,18.931,18.93
			s18.929-8.491,18.929-18.93c0-10.44-8.49-18.931-18.929-18.931C94.199,65.325,85.707,73.816,85.707,84.255z"/>
		<path fill="#FFFFFF" d="M23.584,84.255c0-12.009,9.771-21.779,21.78-21.779s21.778,9.771,21.778,21.779
			c0,12.01-9.769,21.78-21.778,21.78S23.584,96.265,23.584,84.255z M26.434,84.255c0,10.438,8.492,18.93,18.93,18.93
			s18.929-8.491,18.929-18.93c0-10.44-8.491-18.931-18.929-18.931C34.926,65.325,26.434,73.816,26.434,84.255z"/>
		<path fill="#FFFFFF" d="M58.167,53.143c0-0.787,0.639-1.426,1.425-1.426h36.517c0.786,0,1.424,0.639,1.424,1.426
			c0,0.786-0.638,1.424-1.424,1.424H59.59C58.804,54.566,58.167,53.928,58.167,53.143z"/>
		<path fill="#FFFFFF" d="M103.223,84.791l-9.355-38.135c-0.104-0.425-0.008-0.874,0.263-1.219c0.269-0.344,0.683-0.546,1.119-0.546
			h9.689c0.786,0,1.425,0.638,1.425,1.425c0,0.786-0.639,1.424-1.425,1.424h-7.872l8.921,36.371
			c0.187,0.764-0.279,1.537-1.044,1.723c-0.117,0.027-0.228,0.04-0.341,0.04C103.963,85.874,103.38,85.439,103.223,84.791z"/>
		<path fill="#FFFFFF" d="M103.515,60.238c0-0.786,0.642-1.424,1.425-1.424c3.055,0,5.535-2.483,5.535-5.535
			c0-3.053-2.482-5.538-5.535-5.538c-0.783,0-1.425-0.639-1.425-1.424c0-0.787,0.642-1.425,1.425-1.425
			c4.626,0,8.385,3.763,8.385,8.387c0,4.623-3.76,8.385-8.385,8.385C104.154,61.663,103.515,61.025,103.515,60.238z"/>
		<path fill="#FFFFFF" d="M44.611,85.229c-0.261-0.402-0.304-0.91-0.111-1.353l13.788-31.309c0.316-0.72,1.156-1.047,1.876-0.73
			c0.722,0.316,1.046,1.158,0.73,1.876L47.988,83.024H71.57c0.785,0,1.425,0.64,1.425,1.424c0,0.787-0.64,1.426-1.425,1.426H45.804
			C45.322,85.874,44.874,85.631,44.611,85.229z"/>
		<path fill="#FFFFFF" d="M71.137,85.524c-0.595-0.517-0.657-1.417-0.141-2.009l24.9-28.628c0.516-0.592,1.417-0.657,2.01-0.14
			c0.595,0.516,0.657,1.417,0.141,2.01l-24.9,28.627c-0.281,0.322-0.677,0.489-1.075,0.489
			C71.739,85.874,71.405,85.76,71.137,85.524z"/>
		<path fill="#FFFFFF" d="M50.781,46.262c0-0.787,0.639-1.425,1.425-1.425h9.404c0.787,0,1.425,0.638,1.425,1.425
			c0,0.786-0.638,1.424-1.425,1.424h-9.404C51.42,47.686,50.781,47.047,50.781,46.262z"/>
		
			<path fill="#FFFFFF" stroke="#FFFFFF" stroke-width="2.5" stroke-linecap="round" stroke-linejoin="round" stroke-miterlimit="10" d="
			M56.449,45.25"/>
		<path fill="#FFFFFF" d="M70.236,84.953L55.872,46.968c-0.278-0.735,0.092-1.559,0.83-1.837c0.733-0.279,1.559,0.093,1.835,0.828
			l14.366,37.987c0.276,0.735-0.094,1.559-0.831,1.837c-0.165,0.062-0.336,0.091-0.501,0.091
			C70.994,85.874,70.453,85.523,70.236,84.953z"/>
	</g>
</g>
</svg>
