<?xml version="1.0" encoding="utf-8"?>
<!-- Generator: Adobe Illustrator 16.0.0, SVG Export Plug-In . SVG Version: 6.00 Build 0)  -->
<!DOCTYPE svg PUBLIC "-//W3C//DTD SVG 1.1//EN" "http://www.w3.org/Graphics/SVG/1.1/DTD/svg11.dtd">
<svg version="1.1" id="Layer_1" xmlns="http://www.w3.org/2000/svg" xmlns:xlink="http://www.w3.org/1999/xlink" x="0px" y="0px"
	 width="260px" height="95px" viewBox="0 0 260 95" enable-background="new 0 0 260 95" xml:space="preserve">
<path d="M172.448,31.7l20.722,35h-41.442L172.448,31.7z"/>
<path d="M206.115,66.7l-10.104-17.5l10.104-17.5h20.208l10.104,17.5l-10.104,17.5H206.115z"/>
<path d="M41.138,31.7c9.665,0,17.5,7.834,17.5,17.5c0,9.666-7.835,17.5-17.5,17.5c-9.666,0-17.5-7.835-17.5-17.5
	C23.637,39.534,31.472,31.7,41.138,31.7z"/>
<path d="M111.178,31.7h35v35h-35V31.7z"/>
<path d="M84.908,31.7l-5.127,5.125h-7.248v7.249L67.408,49.2l5.125,5.125v7.249h7.248l5.127,5.125l5.125-5.125h7.248v-7.249
	l5.126-5.125l-5.126-5.126v-7.249h-7.248L84.908,31.7z"/>
</svg>
