<?xml version="1.0" encoding="utf-8"?>
<!-- Generator: Adobe Illustrator 16.0.0, SVG Export Plug-In . SVG Version: 6.00 Build 0)  -->
<!DOCTYPE svg PUBLIC "-//W3C//DTD SVG 1.1//EN" "http://www.w3.org/Graphics/SVG/1.1/DTD/svg11.dtd">
<svg version="1.1" id="Layer_1" xmlns="http://www.w3.org/2000/svg" xmlns:xlink="http://www.w3.org/1999/xlink" x="0px" y="0px"
	 width="90.226px" height="53.697px" viewBox="0 0 90.226 53.697" enable-background="new 0 0 90.226 53.697" xml:space="preserve">
<g id="Your_Icon">
	<path fill="#A5A5A5" d="M52.007,34.586c0-10.537,8.573-19.11,19.11-19.11c10.536,0,19.108,8.573,19.108,19.11
		c0,10.537-8.572,19.11-19.108,19.11C60.581,53.697,52.007,45.124,52.007,34.586z M54.507,34.586c0,9.158,7.451,16.609,16.61,16.609
		c9.158,0,16.608-7.451,16.608-16.609c0-9.16-7.45-16.611-16.608-16.611C61.958,17.976,54.507,25.427,54.507,34.586z"/>
	<path fill="#A5A5A5" d="M0,34.586c0-10.537,8.572-19.11,19.109-19.11s19.109,8.573,19.109,19.11c0,10.537-8.572,19.11-19.109,19.11
		S0,45.124,0,34.586z M2.5,34.586c0,9.158,7.451,16.609,16.609,16.609c9.158,0,16.609-7.451,16.609-16.609
		c0-9.16-7.451-16.611-16.609-16.611C9.951,17.976,2.5,25.427,2.5,34.586z"/>
	<path fill="#A5A5A5" d="M30.343,7.287c0-0.69,0.56-1.25,1.25-1.25h32.04c0.689,0,1.25,0.56,1.25,1.25s-0.561,1.25-1.25,1.25H31.592
		C30.902,8.537,30.343,7.977,30.343,7.287z"/>
	<path fill="#A5A5A5" d="M69.875,35.055L61.667,1.596c-0.092-0.373-0.007-0.767,0.23-1.069c0.236-0.302,0.599-0.479,0.982-0.479
		h8.502c0.689,0,1.25,0.56,1.25,1.25s-0.561,1.25-1.25,1.25h-6.908l7.828,31.912c0.164,0.67-0.246,1.348-0.916,1.512
		c-0.103,0.023-0.2,0.035-0.299,0.035C70.524,36.006,70.013,35.625,69.875,35.055z"/>
	<path fill="#A5A5A5" d="M70.132,13.513c0-0.69,0.562-1.25,1.25-1.25c2.679,0,4.856-2.178,4.856-4.856
		c0-2.679-2.178-4.859-4.856-4.859c-0.688,0-1.25-0.56-1.25-1.25s0.562-1.25,1.25-1.25c4.058,0,7.356,3.301,7.356,7.359
		c0,4.056-3.299,7.356-7.356,7.356C70.692,14.763,70.132,14.203,70.132,13.513z"/>
	<path fill="#A5A5A5" d="M18.449,35.441c-0.23-0.354-0.268-0.8-0.098-1.187L30.449,6.783c0.277-0.632,1.014-0.919,1.646-0.64
		c0.633,0.277,0.918,1.015,0.641,1.646L21.412,33.506h20.691c0.689,0,1.25,0.562,1.25,1.25c0,0.69-0.561,1.25-1.25,1.25H19.496
		C19.073,36.006,18.679,35.793,18.449,35.441z"/>
	<path fill="#A5A5A5" d="M41.722,35.7c-0.521-0.453-0.576-1.243-0.123-1.764L63.447,8.819c0.452-0.52,1.243-0.577,1.764-0.123
		c0.521,0.453,0.576,1.243,0.123,1.764L43.486,35.577c-0.247,0.284-0.594,0.43-0.943,0.43C42.252,36.006,41.959,35.906,41.722,35.7z
		"/>
	<path fill="#A5A5A5" d="M23.863,1.25c0-0.69,0.561-1.25,1.25-1.25h8.251c0.69,0,1.25,0.56,1.25,1.25c0,0.69-0.56,1.25-1.25,1.25
		h-8.251C24.424,2.5,23.863,1.94,23.863,1.25z"/>
	
		<path fill="#A5A5A5" stroke="#FFFFFF" stroke-width="2.5" stroke-linecap="round" stroke-linejoin="round" stroke-miterlimit="10" d="
		M28.836,0.363"/>
	<path fill="#A5A5A5" d="M40.933,35.199L28.329,1.869c-0.244-0.645,0.081-1.367,0.727-1.611c0.644-0.245,1.369,0.081,1.611,0.727
		l12.604,33.33c0.243,0.645-0.081,1.367-0.728,1.611c-0.145,0.056-0.295,0.08-0.441,0.08C41.597,36.006,41.123,35.699,40.933,35.199
		z"/>
</g>
</svg>
